<?xml version="1.0" encoding="UTF-8"?><svg xmlns="http://www.w3.org/2000/svg" xmlns:xlink="http://www.w3.org/1999/xlink" contentScriptType="text/ecmascript" width="150pt" zoomAndPan="magnify" contentStyleType="text/css" viewBox="0 0 150 142.499996" height="142.499996pt" preserveAspectRatio="xMidYMid meet" version="1.2"><defs><clipPath xml:id="clip1" id="clip1"><path d="M 60 5.679688 L 90 5.679688 L 90 136.472656 L 60 136.472656 Z M 60 5.679688 "/></clipPath><clipPath xml:id="clip2" id="clip2"><path d="M 89 5.679688 L 146 5.679688 L 146 97 L 89 97 Z M 89 5.679688 "/></clipPath><clipPath xml:id="clip3" id="clip3"><path d="M 4 5.679688 L 61 5.679688 L 61 97 L 4 97 Z M 4 5.679688 "/></clipPath></defs><g xml:id="surface1" id="surface1"><g clip-rule="nonzero" clip-path="url(#clip1)"><path style=" stroke:none;fill-rule:nonzero;fill:rgb(96.078491%,94.509888%,92.939758%);fill-opacity:1;" d="M 86.359375 130.785156 L 83.519531 130.785156 L 83.519531 11.367188 L 86.359375 11.367188 C 87.929688 11.367188 89.199219 10.09375 89.199219 8.523438 C 89.199219 6.953125 87.929688 5.679688 86.359375 5.679688 L 63.640625 5.679688 C 62.074219 5.679688 60.800781 6.953125 60.800781 8.523438 C 60.800781 10.09375 62.074219 11.367188 63.640625 11.367188 L 66.480469 11.367188 L 66.480469 130.785156 L 63.640625 130.785156 C 62.074219 130.785156 60.800781 132.054688 60.800781 133.628906 C 60.800781 135.199219 62.074219 136.472656 63.640625 136.472656 L 86.359375 136.472656 C 87.929688 136.472656 89.199219 135.199219 89.199219 133.628906 C 89.199219 132.054688 87.929688 130.785156 86.359375 130.785156 Z M 86.359375 130.785156 "/></g><g clip-rule="nonzero" clip-path="url(#clip2)"><path style=" stroke:none;fill-rule:nonzero;fill:rgb(96.078491%,94.509888%,92.939758%);fill-opacity:1;" d="M 143.136719 5.679688 C 143.136719 5.679688 143.121094 5.679688 143.121094 5.679688 C 143.117188 5.679688 143.117188 5.679688 143.117188 5.679688 C 118.128906 5.6875 114.761719 25.628906 114.761719 45.128906 C 114.761719 68.355469 107.914062 77.875 89.199219 79.367188 L 89.199219 96.453125 C 114.894531 94.5625 128.960938 79.542969 128.960938 53.660156 C 128.960938 51.210938 128.820312 48.4375 128.671875 45.5 C 128.128906 34.660156 127.445312 21.175781 133.34375 14.964844 C 135.640625 12.546875 138.839844 11.371094 143.121094 11.367188 C 143.125 11.367188 143.132812 11.367188 143.136719 11.367188 C 144.707031 11.367188 145.976562 10.09375 145.976562 8.523438 C 145.976562 6.953125 144.707031 5.679688 143.136719 5.679688 Z M 143.136719 5.679688 "/></g><g clip-rule="nonzero" clip-path="url(#clip3)"><path style=" stroke:none;fill-rule:nonzero;fill:rgb(96.078491%,94.509888%,92.939758%);fill-opacity:1;" d="M 60.800781 79.367188 C 42.085938 77.875 35.238281 68.355469 35.238281 45.128906 C 35.238281 25.628906 31.871094 5.6875 6.882812 5.679688 C 6.875 5.679688 6.867188 5.679688 6.863281 5.679688 C 6.847656 5.679688 6.828125 5.675781 6.804688 5.679688 C 5.265625 5.710938 4.023438 6.972656 4.023438 8.523438 C 4.023438 10.09375 5.296875 11.367188 6.863281 11.367188 C 6.867188 11.367188 6.867188 11.367188 6.875 11.367188 C 6.875 11.367188 6.878906 11.367188 6.878906 11.367188 C 11.164062 11.371094 14.359375 12.546875 16.65625 14.964844 C 22.550781 21.179688 21.871094 34.664062 21.328125 45.5 C 21.179688 48.4375 21.039062 51.210938 21.039062 53.660156 C 21.039062 79.542969 35.105469 94.5625 60.800781 96.453125 Z M 60.800781 79.367188 "/></g></g></svg>