<?xml version="1.0" encoding="UTF-8"?><svg xmlns="http://www.w3.org/2000/svg" xmlns:xlink="http://www.w3.org/1999/xlink" width="76.5pt" zoomAndPan="magnify" viewBox="0 0 76.5 76.499998" height="76.499998pt" preserveAspectRatio="xMidYMid meet" version="1.2"><defs><clipPath xml:id="clip1" id="clip1"><path d="M 1.652344 1.652344 L 75.152344 1.652344 L 75.152344 75.152344 L 1.652344 75.152344 Z M 1.652344 1.652344 "/></clipPath></defs><g xml:id="surface1" id="surface1"><path style=" stroke:none;fill-rule:evenodd;fill:rgb(20.779419%,76.858521%,17.248535%);fill-opacity:1;" d="M 10.074219 58.621094 L 4.621094 72.800781 L 18.964844 67.273438 C 24.515625 71.023438 31.207031 73.210938 38.402344 73.210938 C 57.613281 73.210938 73.210938 57.613281 73.210938 38.402344 C 73.210938 19.191406 57.613281 3.59375 38.402344 3.59375 C 19.191406 3.59375 3.59375 19.191406 3.59375 38.402344 C 3.59375 45.9375 5.996094 52.917969 10.074219 58.621094 Z M 10.074219 58.621094 "/><g clip-rule="nonzero" clip-path="url(#clip1)"><path style=" stroke:none;fill-rule:evenodd;fill:rgb(100%,100%,100%);fill-opacity:1;" d="M 11.886719 59.320312 C 12.121094 58.710938 12.03125 58.023438 11.652344 57.492188 C 7.800781 52.109375 5.539062 45.519531 5.539062 38.402344 C 5.539062 20.265625 20.261719 5.539062 38.402344 5.539062 C 56.539062 5.539062 71.269531 20.265625 71.269531 38.402344 C 71.269531 56.542969 56.539062 71.269531 38.402344 71.269531 C 31.609375 71.269531 25.292969 69.203125 20.050781 65.664062 C 19.523438 65.308594 18.859375 65.234375 18.265625 65.460938 L 8.003906 69.417969 Z M 7.890625 58.882812 L 3.246094 74.175781 L 18.734375 69.445312 C 24.421875 73.058594 31.167969 75.152344 38.402344 75.152344 C 58.683594 75.152344 75.152344 58.6875 75.152344 38.402344 C 75.152344 18.121094 58.683594 1.652344 38.402344 1.652344 C 18.121094 1.652344 1.652344 18.121094 1.652344 38.402344 C 1.652344 45.980469 3.953125 53.027344 7.890625 58.882812 Z M 7.890625 58.882812 "/></g><path style=" stroke:none;fill-rule:evenodd;fill:rgb(100%,100%,100%);fill-opacity:1;" d="M 23.144531 22.605469 C 20.164062 25.582031 19.449219 30.148438 21.375 33.894531 C 21.378906 33.902344 21.382812 33.910156 21.386719 33.921875 C 23.03125 36.964844 25.867188 41.078125 30.890625 46.101562 C 35.820312 51.03125 39.847656 53.824219 42.851562 55.417969 C 42.855469 55.421875 42.859375 55.421875 42.863281 55.425781 C 46.601562 57.355469 51.160156 56.644531 54.136719 53.671875 C 55.171875 52.679688 56.207031 51.644531 56.933594 50.917969 C 58.019531 49.828125 58.019531 48.066406 56.933594 46.980469 L 51.363281 41.410156 C 50.273438 40.320312 48.511719 40.320312 47.425781 41.410156 L 43.785156 45.046875 C 42.734375 44.949219 39.109375 44 36.050781 40.9375 C 32.84375 37.734375 32.210938 34.535156 31.757812 33.007812 L 35.390625 29.375 C 36.476562 28.289062 36.476562 26.523438 35.390625 25.4375 L 29.820312 19.867188 C 28.730469 18.777344 26.96875 18.777344 25.882812 19.867188 Z M 23.144531 22.605469 "/></g></svg>